<svg width="40" height="40" viewBox="0 0 40 40" fill="none" xmlns="http://www.w3.org/2000/svg">
<circle cx="20" cy="20" r="20" fill="#707EFF"/>
<path d="M28.4028 27.4306V20.5695C27.7431 20.7014 27.0834 20.8334 26.4237 20.8334H25.7639V28.75H12.5695V19.5139C12.5695 15.8195 15.4723 12.9167 19.1667 12.9167C19.2987 11.2014 20.0903 9.75003 21.1459 8.56253C20.7501 8.03475 19.9584 7.63892 19.1667 7.63892C17.7153 7.63892 16.5278 8.82642 16.5278 10.2778V10.6736C12.5695 11.8611 9.93061 15.4236 9.93061 19.5139V27.4306L7.29172 30.0695V31.3889H31.0417V30.0695L28.4028 27.4306ZM16.5278 32.7084C16.5278 34.1597 17.7153 35.3472 19.1667 35.3472C20.6181 35.3472 21.8056 34.1597 21.8056 32.7084H16.5278ZM31.0417 13.5764C31.0417 16.0834 28.9306 18.1945 26.4237 18.1945C23.9167 18.1945 21.8056 16.0834 21.8056 13.5764C21.8056 11.0695 23.9167 8.95836 26.4237 8.95836C28.9306 8.95836 31.0417 11.0695 31.0417 13.5764Z" fill="white"/>
</svg>
