<svg width="41" height="41" viewBox="0 0 41 41" fill="none" xmlns="http://www.w3.org/2000/svg">
<path fill-rule="evenodd" clip-rule="evenodd" d="M20.75 0.798096C9.67178 0.798096 0.691666 9.73057 0.691666 20.75C0.691666 31.7695 9.67178 40.7019 20.75 40.7019C31.8282 40.7019 40.8083 31.7695 40.8083 20.75C40.8083 9.73057 31.8282 0.798096 20.75 0.798096ZM13.7296 15.762C13.7296 14.845 13.9112 13.9369 14.264 13.0897C14.6168 12.2425 15.1339 11.4726 15.7858 10.8242C16.4377 10.1757 17.2116 9.66137 18.0634 9.31043C18.9152 8.95949 19.8281 8.77887 20.75 8.77887C21.6719 8.77887 22.5848 8.95949 23.4366 9.31043C24.2883 9.66137 25.0623 10.1757 25.7142 10.8242C26.3661 11.4726 26.8832 12.2425 27.236 13.0897C27.5888 13.9369 27.7704 14.845 27.7704 15.762C27.7704 17.6141 27.0308 19.3903 25.7142 20.6999C24.3976 22.0095 22.6119 22.7452 20.75 22.7452C18.8881 22.7452 17.1024 22.0095 15.7858 20.6999C14.4692 19.3903 13.7296 17.6141 13.7296 15.762ZM33.3025 30.6941C31.801 32.5728 29.8922 34.0898 27.7186 35.1318C25.545 36.1738 23.1628 36.7138 20.75 36.7116C18.3372 36.7138 15.955 36.1738 13.7814 35.1318C11.6078 34.0898 9.69899 32.5728 8.19749 30.6941C11.4489 28.3736 15.8859 26.7356 20.75 26.7356C25.6141 26.7356 30.051 28.3736 33.3025 30.6941Z" fill="#707EFF"/>
</svg>
